# xmcd
#
# Track frame offsets:
#	150
#	16400
#	40013
#	59245
#	80138
#	107588
#	127613
#	144950
#	163625
#
# Disc length: 2473 seconds
#
# Revision: 1
# Processed by: cddbd v1.5.2PL0 Copyright (c) Steve Scherf et al.
# Submitted via: audiograbber 1.83.01
#
DISCID=6f09a709
DTITLE=Andy Davis Band - Andy Davis Band
DYEAR=1994
DGENRE=Alternative Country
TTITLE0=The Chrysler Girl
TTITLE1=Baby Good For You
TTITLE2=One Careless Night
TTITLE3=Confidential Heart
TTITLE4=Rain Rain Rain
TTITLE5=The One Who Called You Sweetheart
TTITLE6=That's What Friends Are For
TTITLE7=I Take It All Back
TTITLE8=Kings In Disguise
EXTD=
EXTT0=
EXTT1=
EXTT2=
EXTT3=
EXTT4=
EXTT5=
EXTT6=
EXTT7=
EXTT8=
PLAYORDER=
